<svg width="24" height="24" viewBox="0 0 24 24" fill="none" xmlns="http://www.w3.org/2000/svg">
<g clip-path="url(#clip0_0_3)">
<path d="M6 5.25C6 2.35031 8.68393 0 12 0C15.3161 0 18 2.35031 18 5.25V7.5H21.4286C22.8482 7.5 24 8.50781 24 9.75V19.5C24 21.9844 21.6964 24 18.8571 24H5.14286C2.3025 24 0 21.9844 0 19.5V9.75C0 8.50781 1.15125 7.5 2.57143 7.5H6V5.25ZM8.57143 7.5H15.4286V5.25C15.4286 3.59297 13.8911 2.25 12 2.25C10.1089 2.25 8.57143 3.59297 8.57143 5.25V7.5ZM7.28571 12C7.99821 12 8.57143 11.4984 8.57143 10.875C8.57143 10.2516 7.99821 9.75 7.28571 9.75C6.57321 9.75 6 10.2516 6 10.875C6 11.4984 6.57321 12 7.28571 12ZM16.7143 9.75C16.0018 9.75 15.4286 10.2516 15.4286 10.875C15.4286 11.4984 16.0018 12 16.7143 12C17.4268 12 18 11.4984 18 10.875C18 10.2516 17.4268 9.75 16.7143 9.75Z" fill="#CCCCCC"/>
</g>
<defs>
<clipPath id="clip0_0_3">
<rect width="24" height="24" fill="white"/>
</clipPath>
</defs>
</svg>
