<svg width="65" height="69" viewBox="0 0 65 69" fill="none" xmlns="http://www.w3.org/2000/svg">
<path d="M65 34.5C65 53.0015 51.7924 68 35.5 68C19.2076 68 6 53.0015 6 34.5C6 15.9985 19.2076 1 35.5 1C51.7924 1 65 15.9985 65 34.5Z" fill="url(#paint0_linear_10_51)"/>
<path d="M32.9999 38C32.8832 38 32.8249 37.9417 32.8249 37.825V30.461C32.8249 30.3537 32.8622 30.2603 32.9369 30.181L34.3369 28.781C34.4162 28.7063 34.5096 28.669 34.6169 28.669H36.1219C36.2386 28.669 36.2969 28.7273 36.2969 28.844V30.475C36.2969 30.5917 36.2386 30.65 36.1219 30.65H35.0369V37.825C35.0369 37.9417 34.9786 38 34.8619 38H32.9999ZM32.3909 33.625C32.2742 33.625 32.2159 33.5667 32.2159 33.45V32.169C32.2159 32.0523 32.2742 31.994 32.3909 31.994H36.1219C36.2386 31.994 36.2969 32.0523 36.2969 32.169V33.45C36.2969 33.5667 36.2386 33.625 36.1219 33.625H32.3909Z" fill="#CCCCCC"/>
<path d="M39.3078 38C39.2004 38 39.1071 37.9603 39.0278 37.881L37.6278 36.481C37.5484 36.4063 37.5088 36.313 37.5088 36.201V32.099C37.5088 31.987 37.5484 31.8937 37.6278 31.819L39.0278 30.419C39.1071 30.3397 39.2004 30.3 39.3078 30.3H41.4288C41.5408 30.3 41.6341 30.3397 41.7088 30.419L43.1088 31.819C43.1881 31.8937 43.2278 31.987 43.2278 32.099V36.201C43.2278 36.313 43.1881 36.4063 43.1088 36.481L41.7088 37.881C41.6341 37.9603 41.5408 38 41.4288 38H39.3078ZM40.1268 36.369H40.6168C40.7661 36.369 40.8688 36.3387 40.9248 36.278C40.9808 36.2173 41.0088 36.11 41.0088 35.956V32.344C41.0088 32.19 40.9808 32.0827 40.9248 32.022C40.8688 31.9613 40.7661 31.931 40.6168 31.931H40.1268C39.9728 31.931 39.8678 31.9613 39.8118 32.022C39.7558 32.0827 39.7278 32.19 39.7278 32.344V35.956C39.7278 36.11 39.7558 36.2173 39.8118 36.278C39.8678 36.3387 39.9728 36.369 40.1268 36.369Z" fill="#CCCCCC"/>
<path d="M45.0336 38C44.9169 38 44.8586 37.9417 44.8586 37.825V30.475C44.8586 30.3583 44.9169 30.3 45.0336 30.3H46.0976C46.1862 30.3 46.2632 30.3397 46.3286 30.419L47.0146 31.21L47.7776 30.384C47.8289 30.328 47.8942 30.3 47.9736 30.3H48.7296C48.8462 30.3 48.9046 30.3583 48.9046 30.475V31.98C48.9046 32.0547 48.8999 32.106 48.8906 32.134C48.8812 32.1573 48.8556 32.183 48.8136 32.211L47.0776 33.492V37.825C47.0776 37.9417 47.0192 38 46.9026 38H45.0336Z" fill="#CCCCCC"/>
<path d="M52.0144 38C51.9211 38 51.8277 37.9697 51.7344 37.909L50.5934 37.139L49.8094 35.879C49.7767 35.8183 49.7487 35.7787 49.7254 35.76C49.7021 35.7367 49.6904 35.69 49.6904 35.62V32.68C49.6904 32.61 49.6997 32.5633 49.7184 32.54C49.7371 32.5167 49.7674 32.4747 49.8094 32.414L50.5234 31.224L51.7344 30.391C51.7764 30.363 51.8184 30.342 51.8604 30.328C51.9024 30.3093 51.9537 30.3 52.0144 30.3H53.2254C53.3421 30.3 53.4004 30.3583 53.4004 30.475V31.784C53.4004 31.8213 53.3957 31.861 53.3864 31.903C53.3817 31.945 53.3607 31.9777 53.3234 32.001L52.5254 32.4L51.9094 33.205V35.074L52.5604 35.816L53.3234 36.299C53.3701 36.327 53.3934 36.362 53.3934 36.404C53.3981 36.4413 53.4004 36.4787 53.4004 36.516V37.825C53.4004 37.9417 53.3421 38 53.2254 38H52.0144Z" fill="#CCCCCC"/>
<path d="M57.934 38C57.8873 38 57.836 37.993 57.78 37.979C57.7287 37.965 57.6797 37.9533 57.633 37.944L56.387 37.636L54.959 37.16C54.819 37.1133 54.749 36.978 54.749 36.754V32.099C54.749 31.987 54.7887 31.8937 54.868 31.819L56.268 30.419C56.3473 30.3397 56.4407 30.3 56.548 30.3H58.788C58.8953 30.3 58.9887 30.3397 59.068 30.419L60.468 31.819C60.5473 31.8937 60.587 31.987 60.587 32.099V34.969H56.828L56.779 35.9L57.773 36.229L59.558 36.355C59.6373 36.369 59.677 36.4227 59.677 36.516V37.825C59.677 37.9417 59.6187 38 59.502 38H57.934ZM57.654 33.87H57.787C58.0157 33.87 58.1977 33.7837 58.333 33.611C58.473 33.4383 58.543 33.205 58.543 32.911V32.771C58.543 32.4817 58.473 32.2507 58.333 32.078C58.1977 31.9053 58.0157 31.819 57.787 31.819H57.647C57.423 31.819 57.2433 31.9053 57.108 32.078C56.9773 32.2507 56.912 32.4817 56.912 32.771V32.911C56.912 33.205 56.9773 33.4383 57.108 33.611C57.2433 33.7837 57.4253 33.87 57.654 33.87Z" fill="#CCCCCC"/>
<path d="M0 34.1875C0 23.5625 2.66667 15.2292 8 9.1875C13.3333 3.14583 21.5208 0.125 32.5625 0.125C39.0208 0.125 44.0417 0.979167 47.625 2.6875C51.2083 4.39583 54.0833 6.89583 56.25 10.1875C57.5417 12.1458 57.3333 13.6875 55.625 14.8125L49 19.1875C47.125 20.4375 45.4792 19.9583 44.0625 17.75C43.3542 16.6667 42 15.5 40 14.25C38 13 35.5208 12.375 32.5625 12.375C27.8542 12.375 24.3333 14.0417 22 17.375C19.6667 20.6667 18.5 26.2708 18.5 34.1875C18.5 42.1042 19.6667 47.7292 22 51.0625C24.3333 54.3542 27.8542 56 32.5625 56C35.9375 56 38.6667 55.2917 40.75 53.875C42.8333 52.4583 44.7917 50.625 46.625 48.375C48.2083 46.4583 49.875 46.1875 51.625 47.5625L57.4375 52.125C59.1875 53.5 59.2917 55.3333 57.75 57.625C56.125 60.0417 53.3542 62.4167 49.4375 64.75C45.5625 67.0833 39.9375 68.25 32.5625 68.25C21.5208 68.25 13.3333 65.2292 8 59.1875C2.66667 53.1458 0 44.8125 0 34.1875Z" fill="#2C2C2C"/>
<defs>
<linearGradient id="paint0_linear_10_51" x1="32.5" y1="0.125" x2="32.5" y2="68.25" gradientUnits="userSpaceOnUse">
<stop offset="0.3" stop-color="#D32F2F"/>
<stop offset="1" stop-color="#6D1818"/>
</linearGradient>
</defs>
</svg>
